<?xml version="1.0" encoding="UTF-8"?><svg id="Layer_2" xmlns="http://www.w3.org/2000/svg" viewBox="0 0 414.47 95.68"><defs><style>.cls-1{fill:#489dd6;}</style></defs><g id="Layer_1-2"><path class="cls-1" d="m63.13,90.11v-.02c1.99-3.44,1.99-7.66,0-11.1L20.75,5.56C18.77,2.12,15.1,0,11.13,0h0C2.58,0-2.77,9.26,1.5,16.66l42.37,73.45c4.28,7.42,14.99,7.41,19.26,0Z"/><path class="cls-1" d="m93.18,37.87h0c-1.49,2.59-4.25,4.18-7.24,4.18h-30.44c-2.99,0-5.75-1.59-7.24-4.18h0c-3.22-5.57.81-12.54,7.24-12.54h30.44c6.43,0,10.45,6.96,7.24,12.53Z"/><path class="cls-1" d="m41.02.26h59.37c6.43,0,10.45,6.96,7.24,12.53h0c-1.49,2.59-4.25,4.18-7.24,4.18h-59.37c-2.99,0-5.75-1.59-7.24-4.18h0c-3.22-5.57.81-12.54,7.24-12.54Z"/><path class="cls-1" d="m71.39,67.29h-1.33c-2.99,0-5.75-1.59-7.24-4.18l-.09-.16c-3.22-5.57.81-12.54,7.24-12.54h1.51c6.43,0,10.45,6.96,7.24,12.53l-.09.16c-1.49,2.59-4.25,4.18-7.24,4.18Z"/><path class="cls-1" d="m158.21,56.14h-8.68l-18.43-44.53h9.37l13.37,34.52,13.43-34.52h9.37l-18.43,44.53Z"/><path class="cls-1" d="m181.83,43.09c.51,3.86,3.86,6.65,9.31,6.65,2.85,0,6.59-1.08,8.36-2.91l4.94,4.88c-3.29,3.42-8.68,5.07-13.43,5.07-10.77,0-17.17-6.65-17.17-16.66s6.46-16.34,16.6-16.34,16.98,6.46,15.77,19.32h-24.39Zm16.98-6.4c-.51-4.05-3.67-6.08-8.11-6.08-4.18,0-7.6,2.03-8.74,6.08h16.85Z"/><path class="cls-1" d="m219.33,24.72l.57,3.61c2.41-3.86,5.64-4.43,8.8-4.43s6.33,1.27,8.05,2.98l-3.48,6.71c-1.58-1.33-3.04-2.03-5.57-2.03-4.05,0-7.79,2.15-7.79,7.92v16.47h-7.73v-31.23h7.16Z"/><path class="cls-1" d="m272.09,11.67v44.28h-7.22l-.51-4.31c-2.41,3.74-6.27,5-10.07,5-9.19,0-16.09-6.08-16.09-16.34,0-10.77,6.78-16.34,15.9-16.34,3.29,0,8.42,1.77,10.26,5V11.67h7.73Zm-26.16,28.63c0,5.45,3.93,9.19,8.87,9.19s9.06-3.55,9.06-9.19-4.18-9.12-9.06-9.12-8.87,3.48-8.87,9.12Z"/><path class="cls-1" d="m287.23,15.91c0,6.02-9.12,6.02-9.12,0s9.12-6.02,9.12,0Zm-8.42,8.68v31.36h7.73v-31.36h-7.73Z"/><path class="cls-1" d="m320.29,51.96c-3.61,3.55-7.41,4.94-12.04,4.94-9.06,0-16.6-5.45-16.6-16.53s7.54-16.53,16.6-16.53c4.43,0,7.85,1.27,11.28,4.62l-4.88,5.13c-1.84-1.65-4.12-2.47-6.27-2.47-5.2,0-9,3.8-9,9.25,0,5.95,4.05,9.12,8.87,9.12,2.47,0,4.94-.7,6.84-2.6l5.19,5.07Z"/><path class="cls-1" d="m334.6,15.91v8.87h8.61v6.65h-8.68v13.49c0,2.98,1.65,4.43,4.05,4.43,1.2,0,2.6-.38,3.74-.95l2.15,6.59c-2.22.89-4.05,1.27-6.4,1.33-6.78.25-11.21-3.61-11.21-11.4v-13.49h-5.83v-6.65h5.83v-8.04l7.73-.82Z"/><path class="cls-1" d="m362.41,55.95V11.61h8.3v44.34h-8.3Z"/><path class="cls-1" d="m392.05,19.21h-14.06v-7.6h36.49v7.6h-14.06v36.74h-8.36V19.21Z"/><path class="cls-1" d="m138.63,77.06h-4.81v-2.6h12.47v2.6h-4.8v12.55h-2.86v-12.55Z"/><path class="cls-1" d="m163.65,89.61h-11.34v-15.15h11.34v2.77h-8.51v3.48h8.2v2.66h-8.2v3.42h8.51v2.81Z"/><path class="cls-1" d="m183.54,87.71c-1.56,1.54-3.57,2.25-5.76,2.25-5.63,0-8.01-3.87-8.03-7.81-.02-3.96,2.55-7.99,8.03-7.99,2.06,0,4,.78,5.56,2.32l-1.9,1.84c-1-.97-2.34-1.43-3.66-1.43-3.66,0-5.24,2.73-5.22,5.26.02,2.51,1.47,5.13,5.22,5.13,1.32,0,2.81-.54,3.81-1.54l1.95,1.97Z"/><path class="cls-1" d="m199.8,89.64v-6.13h-7.45v6.13h-2.86v-15.15h2.86v6.39h7.45v-6.39h2.84v15.15h-2.84Z"/><path class="cls-1" d="m219.6,74.44h2.86v15.17h-1.77v.02l-7.97-10.24v10.22h-2.86v-15.15h2.32l7.42,9.39v-9.42Z"/><path class="cls-1" d="m244.52,82.12c-.04,3.92-2.45,7.84-7.77,7.84s-7.79-3.83-7.79-7.81,2.55-7.99,7.79-7.99,7.81,4,7.77,7.96Zm-12.75.07c.07,2.49,1.41,5.15,4.98,5.15s4.91-2.68,4.96-5.17c.04-2.55-1.39-5.41-4.96-5.41s-5.04,2.88-4.98,5.43Z"/><path class="cls-1" d="m253.8,74.46v12.51h7.79v2.64h-10.65v-15.15h2.86Z"/><path class="cls-1" d="m282.38,82.12c-.04,3.92-2.45,7.84-7.77,7.84s-7.79-3.83-7.79-7.81,2.55-7.99,7.79-7.99,7.81,4,7.77,7.96Zm-12.75.07c.07,2.49,1.41,5.15,4.98,5.15s4.91-2.68,4.96-5.17c.04-2.55-1.39-5.41-4.96-5.41s-5.04,2.88-4.98,5.43Z"/><path class="cls-1" d="m300.06,78.16c-1.02-.97-2.53-1.52-3.85-1.52-3.25,0-5.22,2.47-5.22,5.59,0,2.49,1.45,5.06,5.22,5.06,1.19,0,2.23-.26,3.42-1.21v-2.68h-3.87v-2.55h6.49v6.39c-1.49,1.71-3.38,2.73-6.04,2.73-5.69,0-8.01-3.74-8.01-7.73,0-4.26,2.66-8.2,8.01-8.2,2.04,0,4.07.78,5.63,2.32l-1.77,1.82Z"/><path class="cls-1" d="m308.94,89.61v-15.15h2.84v15.15h-2.84Z"/><path class="cls-1" d="m330.08,89.61h-11.34v-15.15h11.34v2.77h-8.51v3.48h8.2v2.66h-8.2v3.42h8.51v2.81Z"/><path class="cls-1" d="m346.43,78.12c-.52-.87-1.95-1.69-3.59-1.69-2.12,0-3.14.89-3.14,2.01,0,1.32,1.56,1.69,3.38,1.91,3.16.39,6.1,1.21,6.1,4.83,0,3.38-2.99,4.83-6.36,4.83-3.09,0-5.48-.95-6.6-3.72l2.38-1.23c.67,1.67,2.42,2.4,4.26,2.4s3.49-.63,3.49-2.27c0-1.43-1.49-2.01-3.51-2.23-3.1-.37-5.95-1.19-5.95-4.59,0-3.12,3.07-4.39,5.87-4.42,2.36,0,4.8.67,5.95,3.01l-2.27,1.17Z"/><path class="cls-1" d="m367.27,74.46v12.51h7.79v2.64h-10.65v-15.15h2.86Z"/><path class="cls-1" d="m384.26,74.46v12.51h7.79v2.64h-10.65v-15.15h2.86Z"/><path class="cls-1" d="m411.75,87.71c-1.56,1.54-3.57,2.25-5.76,2.25-5.63,0-8.01-3.87-8.03-7.81-.02-3.96,2.55-7.99,8.03-7.99,2.06,0,4,.78,5.56,2.32l-1.9,1.84c-1-.97-2.34-1.43-3.66-1.43-3.66,0-5.24,2.73-5.22,5.26.02,2.51,1.47,5.13,5.22,5.13,1.32,0,2.81-.54,3.81-1.54l1.95,1.97Z"/></g></svg>